<svg xmlns="http://www.w3.org/2000/svg" xmlns:xlink="http://www.w3.org/1999/xlink" width="755" zoomAndPan="magnify" viewBox="0 0 567 283.499996" height="377" preserveAspectRatio="xMidYMid meet" version="1.0">
    <defs>
    <g/><clipPath id="10e343d29e"><path d="M 411.660156 33.535156 L 426.703125 33.535156 L 426.703125 48.582031 L 411.660156 48.582031 Z M 411.660156 33.535156 " clipRule="nonzero"/></clipPath><clipPath id="4d42aec27a"><path d="M 419.179688 33.535156 C 415.027344 33.535156 411.660156 36.90625 411.660156 41.058594 C 411.660156 45.214844 415.027344 48.582031 419.179688 48.582031 C 423.335938 48.582031 426.703125 45.214844 426.703125 41.058594 C 426.703125 36.90625 423.335938 33.535156 419.179688 33.535156 Z M 419.179688 33.535156 " clipRule="nonzero"/></clipPath><clipPath id="9370f6749a"><path d="M 372.566406 214.636719 L 387.613281 214.636719 L 387.613281 229.679688 L 372.566406 229.679688 Z M 372.566406 214.636719 " clipRule="nonzero"/></clipPath><clipPath id="8dd5853ad8"><path d="M 380.089844 214.636719 C 375.933594 214.636719 372.566406 218.003906 372.566406 222.15625 C 372.566406 226.3125 375.933594 229.679688 380.089844 229.679688 C 384.242188 229.679688 387.613281 226.3125 387.613281 222.15625 C 387.613281 218.003906 384.242188 214.636719 380.089844 214.636719 Z M 380.089844 214.636719 " clipRule="nonzero"/></clipPath><clipPath id="fbe541513d"><path d="M 372.566406 239.132812 L 387.613281 239.132812 L 387.613281 254.179688 L 372.566406 254.179688 Z M 372.566406 239.132812 " clipRule="nonzero"/></clipPath><clipPath id="f8aa9d5943"><path d="M 380.089844 239.132812 C 375.933594 239.132812 372.566406 242.5 372.566406 246.65625 C 372.566406 250.808594 375.933594 254.179688 380.089844 254.179688 C 384.242188 254.179688 387.613281 250.808594 387.613281 246.65625 C 387.613281 242.5 384.242188 239.132812 380.089844 239.132812 Z M 380.089844 239.132812 " clipRule="nonzero"/></clipPath><clipPath id="9b571cf0b0"><path d="M 185.597656 134.273438 L 200.640625 134.273438 L 200.640625 149.320312 L 185.597656 149.320312 Z M 185.597656 134.273438 " clipRule="nonzero"/></clipPath><clipPath id="b46bfa6097"><path d="M 193.117188 134.273438 C 188.964844 134.273438 185.597656 137.644531 185.597656 141.796875 C 185.597656 145.953125 188.964844 149.320312 193.117188 149.320312 C 197.273438 149.320312 200.640625 145.953125 200.640625 141.796875 C 200.640625 137.644531 197.273438 134.273438 193.117188 134.273438 Z M 193.117188 134.273438 " clipRule="nonzero"/></clipPath>
    </defs>
    <g fill="#000000" fillOpacity="1"><g transform="translate(37.88523, 210.189429)"><g><path d="M 38.203125 -97.796875 L 38.203125 0 L 7.640625 0 L 7.640625 -97.796875 Z M 81.90625 0 L 51.34375 0 L 51.34375 -108.5 C 51.34375 -113.59375 50.320312 -117.15625 48.28125 -119.1875 C 46.25 -121.226562 42.6875 -122.25 37.59375 -122.25 L 7.640625 -122.25 L 7.640625 -152.8125 L 46.453125 -152.8125 C 52.765625 -152.8125 58.160156 -152.25 62.640625 -151.125 C 67.128906 -150.007812 70.90625 -147.921875 73.96875 -144.859375 C 77.019531 -141.804688 79.101562 -138.085938 80.21875 -133.703125 C 81.34375 -129.328125 81.90625 -123.878906 81.90625 -117.359375 Z M 81.90625 0 "/></g></g></g><g fill="#000000" fillOpacity="1"><g transform="translate(125.900744, 210.189429)"><g><path d="M 53.796875 -117.359375 L 53.796875 0 L 6.109375 0 L 6.109375 -30.5625 L 23.234375 -30.5625 L 23.234375 -108.796875 C 23.234375 -111.648438 22.976562 -113.84375 22.46875 -115.375 C 21.957031 -116.90625 21.191406 -118.175781 20.171875 -119.1875 C 18.128906 -121.226562 14.5625 -122.25 9.46875 -122.25 L 6.109375 -122.25 L 6.109375 -152.8125 L 18.34375 -152.8125 C 24.65625 -152.8125 30.050781 -152.25 34.53125 -151.125 C 39.019531 -150.007812 42.789062 -147.921875 45.84375 -144.859375 C 48.894531 -141.804688 50.984375 -138.085938 52.109375 -133.703125 C 53.234375 -129.328125 53.796875 -123.878906 53.796875 -117.359375 Z M 53.796875 -117.359375 "/></g></g></g><g fill="#000000" fillOpacity="1"><g transform="translate(185.8002, 210.189429)"><g><path d="M 16.8125 -111.25 C 16.8125 -115.320312 15.992188 -118.175781 14.359375 -119.8125 C 12.734375 -121.4375 9.882812 -122.25 5.8125 -122.25 C 5.8125 -122.25 6.015625 -122.25 6.421875 -122.25 C 6.828125 -122.25 5.707031 -122.25 3.0625 -122.25 L 3.0625 -152.8125 L 11.921875 -152.8125 C 18.234375 -152.8125 23.628906 -152.25 28.109375 -151.125 C 32.597656 -150.007812 36.367188 -147.921875 39.421875 -144.859375 C 42.484375 -141.804688 44.570312 -138.085938 45.6875 -133.703125 C 46.8125 -129.328125 47.375 -123.878906 47.375 -117.359375 L 47.375 0 L 16.8125 0 Z M 16.8125 -111.25 "/></g></g></g><g fill="#000000" fillOpacity="1"><g transform="translate(239.281859, 210.189429)"><g><path d="M 71.828125 -69.078125 C 71.828125 -56.234375 71.113281 -45.582031 69.6875 -37.125 C 68.257812 -28.675781 65.507812 -21.5 61.4375 -15.59375 C 57.5625 -9.675781 52.71875 -5.597656 46.90625 -3.359375 C 41.101562 -1.117188 34.023438 0 25.671875 0 L 3.0625 0 L 3.0625 -30.5625 L 13.140625 -30.5625 C 24.347656 -30.5625 32.09375 -33.414062 36.375 -39.125 C 38.613281 -42.175781 40.238281 -45.992188 41.25 -50.578125 C 42.269531 -55.160156 42.78125 -61.628906 42.78125 -69.984375 L 42.78125 -82.828125 C 42.78125 -91.179688 42.269531 -97.648438 41.25 -102.234375 C 40.238281 -106.816406 38.613281 -110.632812 36.375 -113.6875 C 32.09375 -119.394531 24.347656 -122.25 13.140625 -122.25 L 3.0625 -122.25 L 3.0625 -152.8125 L 25.671875 -152.8125 C 34.023438 -152.8125 41.101562 -151.691406 46.90625 -149.453125 C 52.71875 -147.210938 57.5625 -143.132812 61.4375 -137.21875 C 65.507812 -131.3125 68.257812 -124.128906 69.6875 -115.671875 C 71.113281 -107.222656 71.828125 -96.578125 71.828125 -83.734375 Z M 71.828125 -69.078125 "/></g></g></g><g fill="#000000" fillOpacity="1"><g transform="translate(314.156166, 210.189429)"><g><path d="M 38.203125 -47.375 L 38.203125 -44.3125 C 38.203125 -41.664062 38.609375 -39.578125 39.421875 -38.046875 C 40.234375 -36.523438 41.050781 -35.253906 41.875 -34.234375 C 44.3125 -31.785156 48.585938 -30.5625 54.703125 -30.5625 L 70.59375 -30.5625 C 77.9375 -30.5625 83.03125 -31.988281 85.875 -34.84375 C 87.507812 -36.46875 88.628906 -38.398438 89.234375 -40.640625 C 89.847656 -42.890625 90.15625 -46.148438 90.15625 -50.421875 L 90.15625 -152.8125 L 120.71875 -152.8125 L 120.71875 -50.734375 C 120.71875 -41.359375 119.953125 -33.613281 118.421875 -27.5 C 116.898438 -21.394531 113.894531 -16.097656 109.40625 -11.609375 C 104.925781 -7.128906 99.476562 -4.070312 93.0625 -2.4375 C 86.644531 -0.8125 78.953125 0 69.984375 0 L 58.375 0 C 49.40625 0 41.765625 -0.8125 35.453125 -2.4375 C 29.140625 -4.070312 23.738281 -7.128906 19.25 -11.609375 C 14.769531 -16.097656 11.710938 -21.394531 10.078125 -27.5 C 8.453125 -33.613281 7.640625 -41.359375 7.640625 -50.734375 L 7.640625 -152.8125 L 38.203125 -152.8125 L 38.203125 -72.734375 C 38.203125 -68.460938 40.035156 -66.328125 43.703125 -66.328125 C 47.171875 -66.328125 48.90625 -68.460938 48.90625 -72.734375 L 48.90625 -168.09375 L 79.46875 -168.09375 L 79.46875 -73.34375 C 79.46875 -63.769531 77.171875 -56.078125 72.578125 -50.265625 C 67.992188 -44.460938 61.832031 -41.5625 54.09375 -41.5625 C 51.644531 -41.5625 49.046875 -41.96875 46.296875 -42.78125 C 43.546875 -43.601562 40.847656 -45.132812 38.203125 -47.375 Z M 38.203125 -47.375 "/></g></g></g><g fill="#000000" fillOpacity="1"><g transform="translate(440.984075, 210.189429)"><g><path d="M 38.203125 -97.796875 L 38.203125 0 L 7.640625 0 L 7.640625 -97.796875 Z M 81.90625 0 L 51.34375 0 L 51.34375 -108.5 C 51.34375 -113.59375 50.320312 -117.15625 48.28125 -119.1875 C 46.25 -121.226562 42.6875 -122.25 37.59375 -122.25 L 7.640625 -122.25 L 7.640625 -152.8125 L 46.453125 -152.8125 C 52.765625 -152.8125 58.160156 -152.25 62.640625 -151.125 C 67.128906 -150.007812 70.90625 -147.921875 73.96875 -144.859375 C 77.019531 -141.804688 79.101562 -138.085938 80.21875 -133.703125 C 81.34375 -129.328125 81.90625 -123.878906 81.90625 -117.359375 Z M 81.90625 0 "/></g></g></g><g clipPath="url(#10e343d29e)"><g clipPath="url(#4d42aec27a)"><path fill="#000000" d="M 411.660156 33.535156 L 426.703125 33.535156 L 426.703125 48.582031 L 411.660156 48.582031 Z M 411.660156 33.535156 " fillOpacity="1" fillRule="nonzero"/></g></g><g clipPath="url(#9370f6749a)"><g clipPath="url(#8dd5853ad8)"><path fill="#000000" d="M 372.566406 214.636719 L 387.613281 214.636719 L 387.613281 229.679688 L 372.566406 229.679688 Z M 372.566406 214.636719 " fillOpacity="1" fillRule="nonzero"/></g></g><g clipPath="url(#fbe541513d)"><g clipPath="url(#f8aa9d5943)"><path fill="#000000" d="M 372.566406 239.132812 L 387.613281 239.132812 L 387.613281 254.179688 L 372.566406 254.179688 Z M 372.566406 239.132812 " fillOpacity="1" fillRule="nonzero"/></g></g><g clipPath="url(#9b571cf0b0)"><g clipPath="url(#b46bfa6097)"><path fill="#000000" d="M 185.597656 134.273438 L 200.640625 134.273438 L 200.640625 149.320312 L 185.597656 149.320312 Z M 185.597656 134.273438 " fillOpacity="1" fillRule="nonzero"/></g>
    </g>
</svg>